<?xml version="1.0" encoding="utf-8" standalone="no"?>
<!DOCTYPE svg PUBLIC "-//W3C//DTD SVG 1.1//EN"
  "http://www.w3.org/Graphics/SVG/1.1/DTD/svg11.dtd">
<svg xmlns:xlink="http://www.w3.org/1999/xlink" width="720pt" height="432pt" viewBox="0 0 720 432" xmlns="http://www.w3.org/2000/svg" version="1.1">
 <metadata>
  <rdf:RDF xmlns:dc="http://purl.org/dc/elements/1.1/" xmlns:cc="http://creativecommons.org/ns#" xmlns:rdf="http://www.w3.org/1999/02/22-rdf-syntax-ns#">
   <cc:Work>
    <dc:type rdf:resource="http://purl.org/dc/dcmitype/StillImage"/>
    <dc:date>2024-05-28T15:34:03.946915</dc:date>
    <dc:format>image/svg+xml</dc:format>
    <dc:creator>
     <cc:Agent>
      <dc:title>Matplotlib v3.5.1, https://matplotlib.org/</dc:title>
     </cc:Agent>
    </dc:creator>
   </cc:Work>
  </rdf:RDF>
 </metadata>
 <defs>
  <style type="text/css">*{stroke-linejoin: round; stroke-linecap: butt}</style>
 </defs>
 <g id="figure_1">
  <g id="patch_1">
   <path d="M 0 432 
L 720 432 
L 720 0 
L 0 0 
z
" style="fill: #ffffff"/>
  </g>
  <g id="axes_1">
   <g id="patch_2">
    <path d="M 46.1 390.04 
L 647.59 390.04 
L 647.59 25.44 
L 46.1 25.44 
z
" style="fill: #ffffff"/>
   </g>
   <g id="matplotlib.axis_1">
    <g id="xtick_1">
     <g id="line2d_1">
      <defs>
       <path id="mc654d8b455" d="M 0 0 
L 0 3.5 
" style="stroke: #000000; stroke-width: 0.8"/>
      </defs>
      <g>
       <use xlink:href="#mc654d8b455" x="73.440455" y="390.04" style="stroke: #000000; stroke-width: 0.8"/>
      </g>
     </g>
     <g id="text_1">
      <!-- 0 -->
      <g transform="translate(70.259205 404.638438)scale(0.1 -0.1)">
       <defs>
        <path id="DejaVuSans-30" d="M 2034 4250 
Q 1547 4250 1301 3770 
Q 1056 3291 1056 2328 
Q 1056 1369 1301 889 
Q 1547 409 2034 409 
Q 2525 409 2770 889 
Q 3016 1369 3016 2328 
Q 3016 3291 2770 3770 
Q 2525 4250 2034 4250 
z
M 2034 4750 
Q 2819 4750 3233 4129 
Q 3647 3509 3647 2328 
Q 3647 1150 3233 529 
Q 2819 -91 2034 -91 
Q 1250 -91 836 529 
Q 422 1150 422 2328 
Q 422 3509 836 4129 
Q 1250 4750 2034 4750 
z
" transform="scale(0.015625)"/>
       </defs>
       <use xlink:href="#DejaVuSans-30"/>
      </g>
     </g>
    </g>
    <g id="xtick_2">
     <g id="line2d_2">
      <g>
       <use xlink:href="#mc654d8b455" x="182.802273" y="390.04" style="stroke: #000000; stroke-width: 0.8"/>
      </g>
     </g>
     <g id="text_2">
      <!-- 2 -->
      <g transform="translate(179.621023 404.638438)scale(0.1 -0.1)">
       <defs>
        <path id="DejaVuSans-32" d="M 1228 531 
L 3431 531 
L 3431 0 
L 469 0 
L 469 531 
Q 828 903 1448 1529 
Q 2069 2156 2228 2338 
Q 2531 2678 2651 2914 
Q 2772 3150 2772 3378 
Q 2772 3750 2511 3984 
Q 2250 4219 1831 4219 
Q 1534 4219 1204 4116 
Q 875 4013 500 3803 
L 500 4441 
Q 881 4594 1212 4672 
Q 1544 4750 1819 4750 
Q 2544 4750 2975 4387 
Q 3406 4025 3406 3419 
Q 3406 3131 3298 2873 
Q 3191 2616 2906 2266 
Q 2828 2175 2409 1742 
Q 1991 1309 1228 531 
z
" transform="scale(0.015625)"/>
       </defs>
       <use xlink:href="#DejaVuSans-32"/>
      </g>
     </g>
    </g>
    <g id="xtick_3">
     <g id="line2d_3">
      <g>
       <use xlink:href="#mc654d8b455" x="292.164091" y="390.04" style="stroke: #000000; stroke-width: 0.8"/>
      </g>
     </g>
     <g id="text_3">
      <!-- 4 -->
      <g transform="translate(288.982841 404.638438)scale(0.1 -0.1)">
       <defs>
        <path id="DejaVuSans-34" d="M 2419 4116 
L 825 1625 
L 2419 1625 
L 2419 4116 
z
M 2253 4666 
L 3047 4666 
L 3047 1625 
L 3713 1625 
L 3713 1100 
L 3047 1100 
L 3047 0 
L 2419 0 
L 2419 1100 
L 313 1100 
L 313 1709 
L 2253 4666 
z
" transform="scale(0.015625)"/>
       </defs>
       <use xlink:href="#DejaVuSans-34"/>
      </g>
     </g>
    </g>
    <g id="xtick_4">
     <g id="line2d_4">
      <g>
       <use xlink:href="#mc654d8b455" x="401.525909" y="390.04" style="stroke: #000000; stroke-width: 0.8"/>
      </g>
     </g>
     <g id="text_4">
      <!-- 6 -->
      <g transform="translate(398.344659 404.638438)scale(0.1 -0.1)">
       <defs>
        <path id="DejaVuSans-36" d="M 2113 2584 
Q 1688 2584 1439 2293 
Q 1191 2003 1191 1497 
Q 1191 994 1439 701 
Q 1688 409 2113 409 
Q 2538 409 2786 701 
Q 3034 994 3034 1497 
Q 3034 2003 2786 2293 
Q 2538 2584 2113 2584 
z
M 3366 4563 
L 3366 3988 
Q 3128 4100 2886 4159 
Q 2644 4219 2406 4219 
Q 1781 4219 1451 3797 
Q 1122 3375 1075 2522 
Q 1259 2794 1537 2939 
Q 1816 3084 2150 3084 
Q 2853 3084 3261 2657 
Q 3669 2231 3669 1497 
Q 3669 778 3244 343 
Q 2819 -91 2113 -91 
Q 1303 -91 875 529 
Q 447 1150 447 2328 
Q 447 3434 972 4092 
Q 1497 4750 2381 4750 
Q 2619 4750 2861 4703 
Q 3103 4656 3366 4563 
z
" transform="scale(0.015625)"/>
       </defs>
       <use xlink:href="#DejaVuSans-36"/>
      </g>
     </g>
    </g>
    <g id="xtick_5">
     <g id="line2d_5">
      <g>
       <use xlink:href="#mc654d8b455" x="510.887727" y="390.04" style="stroke: #000000; stroke-width: 0.8"/>
      </g>
     </g>
     <g id="text_5">
      <!-- 8 -->
      <g transform="translate(507.706477 404.638438)scale(0.1 -0.1)">
       <defs>
        <path id="DejaVuSans-38" d="M 2034 2216 
Q 1584 2216 1326 1975 
Q 1069 1734 1069 1313 
Q 1069 891 1326 650 
Q 1584 409 2034 409 
Q 2484 409 2743 651 
Q 3003 894 3003 1313 
Q 3003 1734 2745 1975 
Q 2488 2216 2034 2216 
z
M 1403 2484 
Q 997 2584 770 2862 
Q 544 3141 544 3541 
Q 544 4100 942 4425 
Q 1341 4750 2034 4750 
Q 2731 4750 3128 4425 
Q 3525 4100 3525 3541 
Q 3525 3141 3298 2862 
Q 3072 2584 2669 2484 
Q 3125 2378 3379 2068 
Q 3634 1759 3634 1313 
Q 3634 634 3220 271 
Q 2806 -91 2034 -91 
Q 1263 -91 848 271 
Q 434 634 434 1313 
Q 434 1759 690 2068 
Q 947 2378 1403 2484 
z
M 1172 3481 
Q 1172 3119 1398 2916 
Q 1625 2713 2034 2713 
Q 2441 2713 2670 2916 
Q 2900 3119 2900 3481 
Q 2900 3844 2670 4047 
Q 2441 4250 2034 4250 
Q 1625 4250 1398 4047 
Q 1172 3844 1172 3481 
z
" transform="scale(0.015625)"/>
       </defs>
       <use xlink:href="#DejaVuSans-38"/>
      </g>
     </g>
    </g>
    <g id="xtick_6">
     <g id="line2d_6">
      <g>
       <use xlink:href="#mc654d8b455" x="620.249545" y="390.04" style="stroke: #000000; stroke-width: 0.8"/>
      </g>
     </g>
     <g id="text_6">
      <!-- 10 -->
      <g transform="translate(613.887045 404.638438)scale(0.1 -0.1)">
       <defs>
        <path id="DejaVuSans-31" d="M 794 531 
L 1825 531 
L 1825 4091 
L 703 3866 
L 703 4441 
L 1819 4666 
L 2450 4666 
L 2450 531 
L 3481 531 
L 3481 0 
L 794 0 
L 794 531 
z
" transform="scale(0.015625)"/>
       </defs>
       <use xlink:href="#DejaVuSans-31"/>
       <use xlink:href="#DejaVuSans-30" x="63.623047"/>
      </g>
     </g>
    </g>
    <g id="text_7">
     <!-- x -->
     <g transform="translate(343.885625 418.316562)scale(0.1 -0.1)">
      <defs>
       <path id="DejaVuSans-78" d="M 3513 3500 
L 2247 1797 
L 3578 0 
L 2900 0 
L 1881 1375 
L 863 0 
L 184 0 
L 1544 1831 
L 300 3500 
L 978 3500 
L 1906 2253 
L 2834 3500 
L 3513 3500 
z
" transform="scale(0.015625)"/>
      </defs>
      <use xlink:href="#DejaVuSans-78"/>
     </g>
    </g>
   </g>
   <g id="matplotlib.axis_2">
    <g id="ytick_1">
     <g id="line2d_7">
      <defs>
       <path id="mfe6315edc4" d="M 0 0 
L -3.5 0 
" style="stroke: #000000; stroke-width: 0.8"/>
      </defs>
      <g>
       <use xlink:href="#mfe6315edc4" x="46.1" y="373.467273" style="stroke: #000000; stroke-width: 0.8"/>
      </g>
     </g>
     <g id="text_8">
      <!-- 0 -->
      <g transform="translate(32.7375 377.266491)scale(0.1 -0.1)">
       <use xlink:href="#DejaVuSans-30"/>
      </g>
     </g>
    </g>
    <g id="ytick_2">
     <g id="line2d_8">
      <g>
       <use xlink:href="#mfe6315edc4" x="46.1" y="320.434545" style="stroke: #000000; stroke-width: 0.8"/>
      </g>
     </g>
     <g id="text_9">
      <!-- 2 -->
      <g transform="translate(32.7375 324.233764)scale(0.1 -0.1)">
       <use xlink:href="#DejaVuSans-32"/>
      </g>
     </g>
    </g>
    <g id="ytick_3">
     <g id="line2d_9">
      <g>
       <use xlink:href="#mfe6315edc4" x="46.1" y="267.401818" style="stroke: #000000; stroke-width: 0.8"/>
      </g>
     </g>
     <g id="text_10">
      <!-- 4 -->
      <g transform="translate(32.7375 271.201037)scale(0.1 -0.1)">
       <use xlink:href="#DejaVuSans-34"/>
      </g>
     </g>
    </g>
    <g id="ytick_4">
     <g id="line2d_10">
      <g>
       <use xlink:href="#mfe6315edc4" x="46.1" y="214.369091" style="stroke: #000000; stroke-width: 0.8"/>
      </g>
     </g>
     <g id="text_11">
      <!-- 6 -->
      <g transform="translate(32.7375 218.16831)scale(0.1 -0.1)">
       <use xlink:href="#DejaVuSans-36"/>
      </g>
     </g>
    </g>
    <g id="ytick_5">
     <g id="line2d_11">
      <g>
       <use xlink:href="#mfe6315edc4" x="46.1" y="161.336364" style="stroke: #000000; stroke-width: 0.8"/>
      </g>
     </g>
     <g id="text_12">
      <!-- 8 -->
      <g transform="translate(32.7375 165.135582)scale(0.1 -0.1)">
       <use xlink:href="#DejaVuSans-38"/>
      </g>
     </g>
    </g>
    <g id="ytick_6">
     <g id="line2d_12">
      <g>
       <use xlink:href="#mfe6315edc4" x="46.1" y="108.303636" style="stroke: #000000; stroke-width: 0.8"/>
      </g>
     </g>
     <g id="text_13">
      <!-- 10 -->
      <g transform="translate(26.375 112.102855)scale(0.1 -0.1)">
       <use xlink:href="#DejaVuSans-31"/>
       <use xlink:href="#DejaVuSans-30" x="63.623047"/>
      </g>
     </g>
    </g>
    <g id="ytick_7">
     <g id="line2d_13">
      <g>
       <use xlink:href="#mfe6315edc4" x="46.1" y="55.270909" style="stroke: #000000; stroke-width: 0.8"/>
      </g>
     </g>
     <g id="text_14">
      <!-- 12 -->
      <g transform="translate(26.375 59.070128)scale(0.1 -0.1)">
       <use xlink:href="#DejaVuSans-31"/>
       <use xlink:href="#DejaVuSans-32" x="63.623047"/>
      </g>
     </g>
    </g>
    <g id="text_15">
     <!-- $\Psi(x)$ -->
     <g transform="translate(20.295313 218.54)rotate(-90)scale(0.1 -0.1)">
      <defs>
       <path id="DejaVuSans-3a8" d="M 2206 0 
Q 2209 419 2206 969 
Q 1538 969 950 1625 
Q 375 2263 359 3388 
L 359 4666 
L 1025 4666 
L 1025 3388 
Q 1025 2506 1431 1994 
Q 1775 1556 2206 1513 
L 2206 4666 
L 2838 4666 
L 2838 1513 
Q 3269 1556 3613 1994 
Q 4019 2506 4019 3388 
L 4019 4666 
L 4684 4666 
L 4684 3388 
Q 4669 2263 4094 1625 
Q 3506 969 2838 969 
Q 2834 744 2838 0 
L 2206 0 
z
" transform="scale(0.015625)"/>
       <path id="DejaVuSans-28" d="M 1984 4856 
Q 1566 4138 1362 3434 
Q 1159 2731 1159 2009 
Q 1159 1288 1364 580 
Q 1569 -128 1984 -844 
L 1484 -844 
Q 1016 -109 783 600 
Q 550 1309 550 2009 
Q 550 2706 781 3412 
Q 1013 4119 1484 4856 
L 1984 4856 
z
" transform="scale(0.015625)"/>
       <path id="DejaVuSans-Oblique-78" d="M 3841 3500 
L 2234 1784 
L 3219 0 
L 2559 0 
L 1819 1388 
L 531 0 
L -166 0 
L 1556 1844 
L 641 3500 
L 1300 3500 
L 1972 2234 
L 3144 3500 
L 3841 3500 
z
" transform="scale(0.015625)"/>
       <path id="DejaVuSans-29" d="M 513 4856 
L 1013 4856 
Q 1481 4119 1714 3412 
Q 1947 2706 1947 2009 
Q 1947 1309 1714 600 
Q 1481 -109 1013 -844 
L 513 -844 
Q 928 -128 1133 580 
Q 1338 1288 1338 2009 
Q 1338 2731 1133 3434 
Q 928 4138 513 4856 
z
" transform="scale(0.015625)"/>
      </defs>
      <use xlink:href="#DejaVuSans-3a8" transform="translate(0 0.125)"/>
      <use xlink:href="#DejaVuSans-28" transform="translate(78.710938 0.125)"/>
      <use xlink:href="#DejaVuSans-Oblique-78" transform="translate(117.724609 0.125)"/>
      <use xlink:href="#DejaVuSans-29" transform="translate(176.904297 0.125)"/>
     </g>
    </g>
   </g>
   <g id="line2d_14">
    <path d="M 73.440455 360.208851 
L 175.967159 360.096584 
L 197.839523 359.845331 
L 212.876773 359.467165 
L 225.179977 358.951838 
L 236.116159 358.284726 
L 247.052341 357.382617 
L 256.6215 356.379775 
L 267.557682 354.989345 
L 278.493864 353.372384 
L 298.999205 350.021469 
L 311.302409 348.114024 
L 319.504545 347.025041 
L 327.706682 346.158633 
L 334.541795 345.64506 
L 341.376909 345.347036 
L 348.212023 345.277413 
L 355.047136 345.439108 
L 361.88225 345.825935 
L 368.717364 346.418991 
L 376.9195 347.366848 
L 386.488659 348.72208 
L 400.158886 350.921993 
L 419.297205 354.000597 
L 430.233386 355.539955 
L 439.802545 356.687327 
L 449.371705 357.630231 
L 458.940864 358.380238 
L 469.877045 359.020038 
L 482.18025 359.511045 
L 497.2175 359.869385 
L 516.355818 360.08706 
L 547.797341 360.190735 
L 620.249545 360.208851 
L 620.249545 360.208851 
" clip-path="url(#p9a499480e8)" style="fill: none; stroke: #1f77b4; stroke-width: 1.5; stroke-linecap: square"/>
   </g>
   <g id="line2d_15">
    <path d="M 73.440455 333.692368 
L 152.727773 333.82999 
L 171.866091 334.096615 
L 185.536318 334.496067 
L 196.4725 335.017059 
L 206.041659 335.668709 
L 215.610818 336.53891 
L 225.179977 337.647402 
L 234.749136 338.989064 
L 245.685318 340.752184 
L 268.924705 344.599255 
L 275.759818 345.489691 
L 282.594932 346.138891 
L 288.063023 346.435727 
L 293.531114 346.497627 
L 298.999205 346.297844 
L 304.467295 345.817516 
L 309.935386 345.046666 
L 315.403477 343.989359 
L 320.871568 342.656468 
L 326.339659 341.077047 
L 331.80775 339.286897 
L 338.642864 336.825992 
L 364.616295 327.179731 
L 370.084386 325.489798 
L 375.552477 324.029577 
L 381.020568 322.831325 
L 386.488659 321.916876 
L 391.95675 321.291736 
L 397.424841 320.953532 
L 402.892932 320.887467 
L 408.361023 321.070665 
L 413.829114 321.472228 
L 420.664227 322.227074 
L 428.866364 323.40502 
L 441.169568 325.461801 
L 457.573841 328.187493 
L 467.143 329.560033 
L 476.712159 330.702893 
L 486.281318 331.606329 
L 495.850477 332.28737 
L 506.786659 332.835388 
L 519.089864 333.226727 
L 535.494136 333.502943 
L 558.733523 333.64725 
L 612.047409 333.691587 
L 620.249545 333.692989 
L 620.249545 333.692989 
" clip-path="url(#p9a499480e8)" style="fill: none; stroke: #ff7f0e; stroke-width: 1.5; stroke-linecap: square"/>
   </g>
   <g id="line2d_16">
    <path d="M 73.440455 307.174718 
L 129.488386 307.056506 
L 148.626705 306.80205 
L 162.296932 306.402909 
L 173.233114 305.86656 
L 182.802273 305.18155 
L 192.371432 304.253755 
L 200.573568 303.248405 
L 210.142727 301.839394 
L 222.445932 299.750124 
L 237.483182 297.169846 
L 244.318295 296.191998 
L 249.786386 295.588491 
L 255.254477 295.19903 
L 260.722568 295.071891 
L 264.823636 295.17417 
L 268.924705 295.461763 
L 273.025773 295.944635 
L 277.126841 296.627796 
L 281.227909 297.511078 
L 285.328977 298.586196 
L 290.797068 300.297293 
L 296.265159 302.27904 
L 303.100273 305.028199 
L 319.504545 311.836976 
L 324.972636 313.80671 
L 329.073705 315.079201 
L 333.174773 316.134346 
L 337.275841 316.94125 
L 341.376909 317.476159 
L 345.477977 317.722502 
L 349.579045 317.673185 
L 353.680114 317.329246 
L 357.781182 316.70148 
L 361.88225 315.80883 
L 365.983318 314.677461 
L 370.084386 313.340519 
L 375.552477 311.3061 
L 382.387591 308.501948 
L 396.057818 302.808784 
L 401.525909 300.769852 
L 406.994 298.985413 
L 411.095068 297.848659 
L 415.196136 296.900069 
L 419.297205 296.150012 
L 423.398273 295.600665 
L 427.499341 295.248859 
L 431.600409 295.086186 
L 435.701477 295.099864 
L 441.169568 295.363878 
L 446.637659 295.866659 
L 453.472773 296.754488 
L 461.674909 298.069663 
L 489.015364 302.673776 
L 498.584523 303.940401 
L 506.786659 304.81548 
L 516.355818 305.600394 
L 525.924977 306.16361 
L 536.861159 306.592674 
L 550.531386 306.902109 
L 569.669705 307.092013 
L 605.212295 307.169883 
L 620.249545 307.174718 
L 620.249545 307.174718 
" clip-path="url(#p9a499480e8)" style="fill: none; stroke: #2ca02c; stroke-width: 1.5; stroke-linecap: square"/>
   </g>
   <g id="line2d_17">
    <path d="M 73.440455 280.665067 
L 114.451136 280.803641 
L 132.222432 281.083789 
L 144.525636 281.487876 
L 155.461818 282.078564 
L 165.030977 282.836643 
L 173.233114 283.700972 
L 181.43525 284.771503 
L 191.004409 286.266628 
L 204.674636 288.68971 
L 215.610818 290.557702 
L 222.445932 291.502549 
L 227.914023 292.041602 
L 233.382114 292.322592 
L 237.483182 292.330404 
L 241.58425 292.141661 
L 245.685318 291.740506 
L 249.786386 291.116913 
L 253.887455 290.267372 
L 257.988523 289.196618 
L 262.089591 287.917186 
L 267.557682 285.925146 
L 273.025773 283.677587 
L 283.961955 278.841319 
L 290.797068 275.959138 
L 294.898136 274.42501 
L 298.999205 273.10078 
L 303.100273 272.038989 
L 307.201341 271.289828 
L 309.935386 270.978951 
L 312.669432 270.827613 
L 315.403477 270.825003 
L 318.137523 270.998355 
L 320.871568 271.333652 
L 323.605614 271.823364 
L 327.706682 272.835135 
L 331.80775 274.151784 
L 335.908818 275.723424 
L 341.376909 278.10087 
L 357.781182 285.59363 
L 361.88225 287.165268 
L 365.983318 288.481915 
L 370.084386 289.493683 
L 372.818432 289.983394 
L 375.552477 290.31869 
L 378.286523 290.492041 
L 381.020568 290.502693 
L 385.121636 290.201607 
L 387.855682 289.814713 
L 391.95675 288.956557 
L 396.057818 287.801446 
L 400.158886 286.401453 
L 405.626977 284.243748 
L 413.829114 280.652002 
L 423.398273 276.489571 
L 428.866364 274.358525 
L 432.967432 272.951338 
L 437.0685 271.739532 
L 441.169568 270.741537 
L 445.270636 269.967126 
L 449.371705 269.418627 
L 453.472773 269.089537 
L 457.573841 268.968327 
L 461.674909 269.037355 
L 467.143 269.388318 
L 472.611091 269.982564 
L 479.446205 270.975004 
L 489.015364 272.627344 
L 505.419636 275.501228 
L 514.988795 276.926149 
L 523.190932 277.927647 
L 531.393068 278.722328 
L 540.962227 279.411969 
L 550.531386 279.88654 
L 562.834591 280.265198 
L 579.238864 280.513406 
L 603.845273 280.632275 
L 620.249545 280.651983 
L 620.249545 280.651983 
" clip-path="url(#p9a499480e8)" style="fill: none; stroke: #d62728; stroke-width: 1.5; stroke-linecap: square"/>
   </g>
   <g id="line2d_18">
    <path d="M 73.440455 254.122503 
L 102.147932 253.957644 
L 117.185182 253.677274 
L 129.488386 253.226069 
L 139.057545 252.662371 
L 147.259682 251.985305 
L 155.461818 251.099761 
L 163.663955 249.994078 
L 173.233114 248.449573 
L 200.573568 243.756284 
L 206.041659 243.147153 
L 211.50975 242.798168 
L 215.610818 242.746634 
L 219.711886 242.902371 
L 223.812955 243.28481 
L 227.914023 243.907044 
L 232.015091 244.774284 
L 236.116159 245.882532 
L 240.217227 247.217511 
L 244.318295 248.754053 
L 249.786386 251.052338 
L 259.355545 255.419396 
L 266.190659 258.431794 
L 270.291727 260.041143 
L 274.392795 261.417481 
L 278.493864 262.498218 
L 281.227909 263.027945 
L 283.961955 263.389985 
L 286.696 263.574781 
L 289.430045 263.576167 
L 292.164091 263.391591 
L 294.898136 263.022337 
L 297.632182 262.473636 
L 300.366227 261.754678 
L 304.467295 260.386548 
L 308.568364 258.724829 
L 314.036455 256.184765 
L 327.706682 249.583127 
L 331.80775 247.932825 
L 335.908818 246.593043 
L 338.642864 245.906905 
L 341.376909 245.405251 
L 344.110955 245.099598 
L 346.845 244.996947 
L 349.579045 245.099598 
L 352.313091 245.405251 
L 355.047136 245.906905 
L 357.781182 246.593043 
L 360.515227 247.447993 
L 364.616295 249.003419 
L 368.717364 250.815043 
L 375.552477 254.15269 
L 382.387591 257.490569 
L 386.488659 259.307002 
L 390.589727 260.878498 
L 394.690795 262.134714 
L 397.424841 262.769936 
L 400.158886 263.229812 
L 402.892932 263.507136 
L 405.626977 263.598647 
L 408.361023 263.505006 
L 411.095068 263.2306 
L 413.829114 262.783319 
L 416.563159 262.174324 
L 420.664227 260.988621 
L 424.765295 259.527282 
L 430.233386 257.26321 
L 438.435523 253.529176 
L 446.637659 249.87301 
L 452.10575 247.708865 
L 456.206818 246.303346 
L 460.307886 245.117407 
L 464.408955 244.168899 
L 468.510023 243.465144 
L 472.611091 243.003869 
L 476.712159 242.774445 
L 480.813227 242.759371 
L 484.914295 242.935956 
L 490.382386 243.423455 
L 495.850477 244.13702 
L 504.052614 245.483142 
L 528.659023 249.789012 
L 536.861159 250.93074 
L 545.063295 251.852768 
L 553.265432 252.562878 
L 562.834591 253.158511 
L 573.770773 253.598451 
L 587.441 253.902224 
L 606.579318 254.077302 
L 620.249545 254.122503 
L 620.249545 254.122503 
" clip-path="url(#p9a499480e8)" style="fill: none; stroke: #9467bd; stroke-width: 1.5; stroke-linecap: square"/>
   </g>
   <g id="line2d_19">
    <path d="M 73.440455 227.686875 
L 93.945795 227.907729 
L 107.616023 228.26406 
L 119.919227 228.872713 
L 129.488386 229.608347 
L 137.690523 230.469867 
L 145.892659 231.556131 
L 154.094795 232.862909 
L 165.030977 234.840001 
L 177.334182 237.039445 
L 184.169295 238.020791 
L 189.637386 238.560717 
L 193.738455 238.773843 
L 197.839523 238.789811 
L 201.940591 238.581852 
L 206.041659 238.128866 
L 210.142727 237.418817 
L 214.243795 236.449939 
L 218.344864 235.226527 
L 222.445932 233.771005 
L 227.914023 231.526535 
L 234.749136 228.397433 
L 244.318295 223.964174 
L 248.419364 222.266026 
L 252.520432 220.795515 
L 256.6215 219.634832 
L 259.355545 219.064364 
L 262.089591 218.673526 
L 264.823636 218.473667 
L 267.557682 218.473062 
L 270.291727 218.676405 
L 273.025773 219.083265 
L 275.759818 219.685764 
L 278.493864 220.47288 
L 281.227909 221.422569 
L 285.328977 223.125597 
L 289.430045 225.070359 
L 304.467295 232.527364 
L 308.568364 234.134269 
L 311.302409 234.998249 
L 314.036455 235.666054 
L 316.7705 236.120805 
L 319.504545 236.352544 
L 322.238591 236.348118 
L 324.972636 236.106508 
L 327.706682 235.635446 
L 330.440727 234.94832 
L 333.174773 234.06335 
L 335.908818 233.002889 
L 340.009886 231.143552 
L 345.477977 228.349407 
L 353.680114 224.11019 
L 357.781182 222.250845 
L 360.515227 221.190378 
L 363.249273 220.3054 
L 365.983318 219.618267 
L 368.717364 219.147197 
L 371.451409 218.90558 
L 374.185455 218.901148 
L 376.9195 219.132882 
L 379.653545 219.587631 
L 382.387591 220.255435 
L 385.121636 221.119416 
L 389.222705 222.726325 
L 393.323773 224.616561 
L 400.158886 228.096509 
L 406.994 231.501919 
L 411.095068 233.296501 
L 415.196136 234.78748 
L 417.930182 235.567981 
L 420.664227 236.17048 
L 423.398273 236.577339 
L 426.132318 236.780679 
L 428.866364 236.78007 
L 431.600409 236.580206 
L 434.334455 236.189361 
L 437.0685 235.618887 
L 439.802545 234.882943 
L 443.903614 233.50767 
L 448.004682 231.874811 
L 453.472773 229.430537 
L 467.143 223.13825 
L 471.244068 221.482696 
L 475.345136 220.027182 
L 479.446205 218.803777 
L 483.547273 217.833266 
L 487.648341 217.124865 
L 491.749409 216.671885 
L 495.850477 216.463929 
L 499.951545 216.479898 
L 504.052614 216.693023 
L 509.520705 217.232945 
L 514.988795 217.997436 
L 523.190932 219.401677 
L 543.696273 223.068115 
L 551.898409 224.276497 
L 561.467568 225.385575 
L 569.669705 226.096007 
L 579.238864 226.690632 
L 590.175045 227.12049 
L 603.845273 227.412438 
L 620.249545 227.566839 
L 620.249545 227.566839 
" clip-path="url(#p9a499480e8)" style="fill: none; stroke: #8c564b; stroke-width: 1.5; stroke-linecap: square"/>
   </g>
   <g id="line2d_20">
    <path d="M 73.440455 200.958462 
L 85.743659 200.721466 
L 96.679841 200.34549 
L 106.249 199.821354 
L 114.451136 199.173113 
L 122.653273 198.304425 
L 130.855409 197.200141 
L 139.057545 195.868456 
L 151.36075 193.604255 
L 162.296932 191.659231 
L 167.765023 190.884194 
L 173.233114 190.334271 
L 177.334182 190.131279 
L 181.43525 190.133103 
L 185.536318 190.370263 
L 189.637386 190.872107 
L 193.738455 191.643795 
L 197.839523 192.685278 
L 201.940591 193.991482 
L 206.041659 195.540778 
L 211.50975 197.899127 
L 219.711886 201.794476 
L 226.547 204.97477 
L 230.648068 206.673222 
L 234.749136 208.106971 
L 237.483182 208.875726 
L 240.217227 209.47015 
L 242.951273 209.872626 
L 245.685318 210.070018 
L 248.419364 210.053415 
L 251.153409 209.819139 
L 253.887455 209.369158 
L 256.6215 208.711143 
L 259.355545 207.858479 
L 262.089591 206.83025 
L 266.190659 205.013776 
L 271.65875 202.246009 
L 281.227909 197.300353 
L 285.328977 195.492552 
L 288.063023 194.485747 
L 290.797068 193.674749 
L 293.531114 193.085466 
L 296.265159 192.737416 
L 298.999205 192.643016 
L 301.73325 192.807018 
L 304.467295 193.226162 
L 307.201341 193.889102 
L 309.935386 194.77674 
L 312.669432 195.862434 
L 316.7705 197.788823 
L 322.238591 200.697954 
L 329.073705 204.363346 
L 333.174773 206.29642 
L 335.908818 207.384603 
L 338.642864 208.270227 
L 341.376909 208.924405 
L 344.110955 209.325667 
L 346.845 209.460818 
L 349.579045 209.325666 
L 352.313091 208.924405 
L 355.047136 208.270226 
L 357.781182 207.384602 
L 360.515227 206.296419 
L 364.616295 204.363344 
L 370.084386 201.448316 
L 376.9195 197.788821 
L 381.020568 195.862554 
L 383.754614 194.776739 
L 386.488659 193.889101 
L 389.222705 193.226162 
L 391.95675 192.807018 
L 394.690795 192.643016 
L 397.424841 192.737416 
L 400.158886 193.085467 
L 402.892932 193.67475 
L 405.626977 194.485748 
L 408.361023 195.492554 
L 412.462091 197.300355 
L 417.930182 200.072058 
L 426.132318 204.350221 
L 430.233386 206.257767 
L 434.334455 207.85848 
L 437.0685 208.711143 
L 439.802545 209.369157 
L 442.536591 209.819138 
L 445.270636 210.053414 
L 448.004682 210.070016 
L 450.738727 209.872625 
L 453.472773 209.470149 
L 456.206818 208.875724 
L 458.940864 208.106969 
L 463.041932 206.67322 
L 467.143 204.974768 
L 472.611091 202.450002 
L 483.547273 197.276975 
L 489.015364 194.99989 
L 493.116432 193.527469 
L 497.2175 192.308277 
L 501.318568 191.356514 
L 505.419636 190.674936 
L 509.520705 190.262454 
L 513.621773 190.109101 
L 517.722841 190.18427 
L 521.823909 190.444996 
L 527.292 191.05998 
L 534.127114 192.109295 
L 543.696273 193.861771 
L 557.3665 196.335046 
L 565.568636 197.594243 
L 573.770773 198.620427 
L 581.972909 199.410823 
L 591.542068 200.073297 
L 602.47825 200.560249 
L 616.148477 200.898611 
L 620.249545 200.958462 
L 620.249545 200.958462 
" clip-path="url(#p9a499480e8)" style="fill: none; stroke: #e377c2; stroke-width: 1.5; stroke-linecap: square"/>
   </g>
   <g id="line2d_21">
    <path d="M 73.440455 174.96436 
L 85.743659 175.465934 
L 95.312818 176.076933 
L 103.514955 176.814754 
L 111.717091 177.787229 
L 119.919227 179.004317 
L 129.488386 180.68767 
L 148.626705 184.170503 
L 154.094795 184.903571 
L 158.195864 185.284094 
L 162.296932 185.477971 
L 166.398 185.451511 
L 170.499068 185.174701 
L 174.600136 184.625268 
L 178.701205 183.790994 
L 182.802273 182.671916 
L 186.903341 181.282751 
L 191.004409 179.653818 
L 196.4725 177.191937 
L 211.50975 170.064729 
L 215.610818 168.452533 
L 218.344864 167.550319 
L 221.078909 166.814987 
L 223.812955 166.268953 
L 226.547 165.929591 
L 229.281045 165.810425 
L 232.015091 165.919329 
L 234.749136 166.25752 
L 237.483182 166.820999 
L 240.217227 167.598278 
L 242.951273 168.571085 
L 247.052341 170.342965 
L 251.153409 172.392651 
L 263.456614 178.834725 
L 267.557682 180.5822 
L 270.291727 181.515298 
L 273.025773 182.224317 
L 275.759818 182.68359 
L 278.493864 182.875627 
L 281.227909 182.790683 
L 283.961955 182.430162 
L 286.696 181.803459 
L 289.430045 180.929827 
L 292.164091 179.837593 
L 296.265159 177.871406 
L 301.73325 174.880662 
L 308.568364 171.142307 
L 312.669432 169.222244 
L 315.403477 168.179136 
L 318.137523 167.370768 
L 320.871568 166.828452 
L 323.605614 166.572755 
L 326.339659 166.614305 
L 329.073705 166.951861 
L 331.80775 167.57368 
L 334.541795 168.457392 
L 337.275841 169.5701 
L 341.376909 171.57756 
L 346.845 174.617093 
L 352.313091 177.656783 
L 356.414159 179.6648 
L 359.148205 180.778005 
L 361.88225 181.66228 
L 364.616295 182.284697 
L 367.350341 182.622851 
L 370.084386 182.664965 
L 372.818432 182.409765 
L 375.552477 181.867852 
L 378.286523 181.05977 
L 381.020568 180.016406 
L 383.754614 178.776466 
L 387.855682 176.649076 
L 398.791864 170.673664 
L 401.525909 169.398872 
L 404.259955 168.306075 
L 406.994 167.431922 
L 409.728045 166.804768 
L 412.462091 166.443889 
L 415.196136 166.358947 
L 417.930182 166.55061 
L 420.664227 167.009885 
L 423.398273 167.719029 
L 426.132318 168.652369 
L 428.866364 169.777525 
L 432.967432 171.740924 
L 439.802545 175.386942 
L 445.270636 178.236488 
L 449.371705 180.114359 
L 452.10575 181.177032 
L 454.839795 182.054834 
L 457.573841 182.727163 
L 460.307886 183.178828 
L 463.041932 183.402574 
L 465.775977 183.396418 
L 468.510023 183.165584 
L 471.244068 182.720696 
L 473.978114 182.076933 
L 476.712159 181.254881 
L 480.813227 179.73893 
L 484.914295 177.964262 
L 491.749409 174.691967 
L 499.951545 170.777501 
L 504.052614 169.013769 
L 508.153682 167.460558 
L 512.25475 166.159182 
L 516.355818 165.134444 
L 520.456886 164.396323 
L 524.557955 163.940102 
L 528.659023 163.750096 
L 532.760091 163.801169 
L 536.861159 164.061501 
L 542.32925 164.673107 
L 549.164364 165.739913 
L 560.100545 167.775172 
L 572.40375 170.00848 
L 580.605886 171.264361 
L 588.808023 172.27753 
L 597.010159 173.052254 
L 606.579318 173.697734 
L 617.5155 174.181456 
L 620.249545 174.272356 
L 620.249545 174.272356 
" clip-path="url(#p9a499480e8)" style="fill: none; stroke: #7f7f7f; stroke-width: 1.5; stroke-linecap: square"/>
   </g>
   <g id="line2d_22">
    <path d="M 73.440455 147.467955 
L 83.009614 146.788089 
L 91.21175 145.999907 
L 99.413886 144.976501 
L 107.616023 143.714138 
L 118.552205 141.713375 
L 132.222432 139.148785 
L 137.690523 138.305963 
L 143.158614 137.702488 
L 147.259682 137.457824 
L 151.36075 137.433362 
L 155.461818 137.666479 
L 159.562886 138.178581 
L 163.663955 138.983572 
L 167.765023 140.086654 
L 171.866091 141.476628 
L 175.967159 143.119772 
L 180.068227 144.959722 
L 188.270364 148.980229 
L 195.105477 152.23469 
L 199.206545 153.93672 
L 201.940591 154.901638 
L 204.674636 155.697292 
L 207.408682 156.300553 
L 210.142727 156.692966 
L 212.876773 156.854783 
L 215.610818 156.778396 
L 218.344864 156.46031 
L 221.078909 155.904499 
L 223.812955 155.122425 
L 226.547 154.13306 
L 230.648068 152.319514 
L 234.749136 150.21592 
L 245.685318 144.330611 
L 249.786386 142.489186 
L 252.520432 141.497633 
L 255.254477 140.73905 
L 257.988523 140.243111 
L 260.722568 140.03064 
L 263.456614 140.112478 
L 266.190659 140.488707 
L 268.924705 141.148442 
L 271.65875 142.069711 
L 274.392795 143.220268 
L 278.493864 145.28288 
L 283.961955 148.384281 
L 289.430045 151.449717 
L 292.164091 152.816855 
L 294.898136 153.998283 
L 297.632182 154.945407 
L 300.366227 155.618724 
L 303.100273 155.989446 
L 305.834318 156.041111 
L 308.568364 155.770071 
L 311.302409 155.185819 
L 314.036455 154.311342 
L 316.7705 153.181896 
L 319.504545 151.843601 
L 323.605614 149.56692 
L 331.80775 144.843784 
L 334.541795 143.462529 
L 337.275841 142.279645 
L 340.009886 141.345247 
L 342.743932 140.699177 
L 345.477977 140.369206 
L 348.212023 140.369208 
L 350.946068 140.699183 
L 353.680114 141.345257 
L 356.414159 142.279657 
L 359.148205 143.462543 
L 363.249273 145.590788 
L 375.552477 152.535622 
L 378.286523 153.775831 
L 381.020568 154.782887 
L 383.754614 155.515984 
L 386.488659 155.945647 
L 389.222705 156.055689 
L 391.95675 155.843228 
L 394.690795 155.31836 
L 397.424841 154.503828 
L 400.158886 153.433994 
L 402.892932 152.153153 
L 406.994 149.952253 
L 416.563159 144.55853 
L 419.297205 143.22026 
L 422.03125 142.069706 
L 424.765295 141.14844 
L 427.499341 140.488707 
L 430.233386 140.112481 
L 432.967432 140.030645 
L 435.701477 140.243119 
L 438.435523 140.739059 
L 441.169568 141.497644 
L 443.903614 142.489198 
L 446.637659 143.676662 
L 450.738727 145.7299 
L 464.408955 152.96261 
L 467.143 154.133063 
L 469.877045 155.122425 
L 472.611091 155.904498 
L 475.345136 156.460308 
L 478.079182 156.778393 
L 480.813227 156.854779 
L 483.547273 156.695815 
L 486.281318 156.300548 
L 489.015364 155.697288 
L 491.749409 154.901634 
L 495.850477 153.399489 
L 499.951545 151.615049 
L 506.786659 148.301366 
L 514.988795 144.325464 
L 519.089864 142.544129 
L 523.190932 140.98318 
L 527.292 139.686057 
L 531.393068 138.682141 
L 535.494136 137.975872 
L 539.595205 137.55865 
L 543.696273 137.414266 
L 547.797341 137.517485 
L 551.898409 137.831362 
L 555.999477 138.305947 
L 561.467568 139.148767 
L 569.669705 140.652415 
L 584.706955 143.476152 
L 592.909091 144.782164 
L 601.111227 145.846347 
L 609.313364 146.671428 
L 618.882523 147.384913 
L 620.249545 147.46795 
L 620.249545 147.46795 
" clip-path="url(#p9a499480e8)" style="fill: none; stroke: #bcbd22; stroke-width: 1.5; stroke-linecap: square"/>
   </g>
   <g id="line2d_23">
    <path d="M 73.440455 123.035911 
L 81.642591 123.99288 
L 89.844727 125.170694 
L 98.046864 126.578024 
L 108.983045 128.70667 
L 119.919227 130.785376 
L 125.387318 131.622858 
L 129.488386 132.087006 
L 133.589455 132.364485 
L 137.690523 132.415283 
L 141.791591 132.203947 
L 145.892659 131.702429 
L 149.993727 130.893898 
L 154.094795 129.775583 
L 158.195864 128.361637 
L 162.296932 126.685179 
L 167.765023 124.135807 
L 181.43525 117.42915 
L 185.536318 115.751491 
L 188.270364 114.82034 
L 191.004409 114.073285 
L 193.738455 113.535629 
L 196.4725 113.227783 
L 199.206545 113.164271 
L 201.940591 113.352772 
L 204.674636 113.793374 
L 207.408682 114.478182 
L 210.142727 115.391091 
L 212.876773 116.507377 
L 216.977841 118.490806 
L 222.445932 121.490084 
L 229.281045 125.243394 
L 233.382114 127.177426 
L 236.116159 128.229493 
L 238.850205 129.041981 
L 241.58425 129.581021 
L 244.318295 129.822568 
L 247.052341 129.753498 
L 249.786386 129.372918 
L 252.520432 128.6922 
L 255.254477 127.735334 
L 257.988523 126.537982 
L 262.089591 124.395092 
L 274.392795 117.405287 
L 277.126841 116.161847 
L 279.860886 115.161849 
L 282.594932 114.450682 
L 285.328977 114.061635 
L 288.063023 114.0139 
L 290.797068 114.311674 
L 293.531114 114.943779 
L 296.265159 115.883501 
L 298.999205 117.090012 
L 301.73325 118.509791 
L 305.834318 120.897504 
L 312.669432 124.95223 
L 315.403477 126.381322 
L 318.137523 127.596467 
L 320.871568 128.54025 
L 323.605614 129.167927 
L 326.339659 129.449239 
L 329.073705 129.370227 
L 331.80775 128.933984 
L 334.541795 128.160554 
L 337.275841 127.085931 
L 340.009886 125.760695 
L 344.110955 123.442109 
L 352.313091 118.541537 
L 355.047136 117.113783 
L 357.781182 115.906716 
L 360.515227 114.977218 
L 363.249273 114.368843 
L 365.983318 114.109783 
L 368.717364 114.211582 
L 371.451409 114.668878 
L 374.185455 115.459334 
L 376.9195 116.545221 
L 379.653545 117.875235 
L 383.754614 120.188668 
L 391.95675 125.054933 
L 394.690795 126.474716 
L 397.424841 127.681232 
L 400.158886 128.62096 
L 402.892932 129.253069 
L 405.626977 129.55085 
L 408.361023 129.50312 
L 411.095068 129.114078 
L 413.829114 128.402914 
L 416.563159 127.40292 
L 419.297205 126.159481 
L 423.398273 123.960815 
L 434.334455 117.701527 
L 437.0685 116.400695 
L 439.802545 115.318429 
L 442.536591 114.495882 
L 445.270636 113.962996 
L 448.004682 113.737569 
L 450.738727 113.824688 
L 453.472773 114.217288 
L 456.206818 114.896713 
L 458.940864 115.833763 
L 461.674909 116.990353 
L 465.775977 119.036613 
L 472.611091 122.844535 
L 478.079182 125.769858 
L 482.18025 127.639082 
L 484.914295 128.657331 
L 487.648341 129.458681 
L 490.382386 130.022892 
L 493.116432 130.337926 
L 495.850477 130.39993 
L 498.584523 130.212834 
L 501.318568 129.787888 
L 504.052614 129.14265 
L 506.786659 128.300125 
L 510.887727 126.727062 
L 514.988795 124.876591 
L 521.823909 121.479016 
L 528.659023 118.117737 
L 532.760091 116.294441 
L 536.861159 114.700581 
L 540.962227 113.382459 
L 545.063295 112.366712 
L 549.164364 111.661591 
L 553.265432 111.259327 
L 557.3665 111.138863 
L 561.467568 111.269451 
L 565.568636 111.613731 
L 571.036727 112.334454 
L 577.871841 113.519215 
L 603.845273 118.394036 
L 612.047409 119.571855 
L 620.249545 120.528827 
L 620.249545 120.528827 
" clip-path="url(#p9a499480e8)" style="fill: none; stroke: #17becf; stroke-width: 1.5; stroke-linecap: square"/>
   </g>
   <g id="line2d_24">
    <path d="M 73.440455 42.012727 
L 81.642591 61.601691 
L 89.844727 80.594036 
L 98.046864 98.989764 
L 106.249 116.788873 
L 114.451136 133.991364 
L 122.653273 150.597236 
L 129.488386 163.979714 
L 136.3235 176.947873 
L 143.158614 189.501714 
L 149.993727 201.641236 
L 156.828841 213.366441 
L 163.663955 224.677327 
L 170.499068 235.573895 
L 177.334182 246.056145 
L 184.169295 256.124077 
L 191.004409 265.777691 
L 197.839523 275.016986 
L 204.674636 283.841964 
L 211.50975 292.252623 
L 218.344864 300.248964 
L 225.179977 307.830986 
L 230.648068 313.598295 
L 236.116159 319.100441 
L 241.58425 324.337423 
L 247.052341 329.309241 
L 252.520432 334.015895 
L 257.988523 338.457386 
L 263.456614 342.633714 
L 268.924705 346.544877 
L 274.392795 350.190877 
L 279.860886 353.571714 
L 285.328977 356.687386 
L 290.797068 359.537895 
L 296.265159 362.123241 
L 301.73325 364.443423 
L 307.201341 366.498441 
L 312.669432 368.288295 
L 318.137523 369.812986 
L 323.605614 371.072514 
L 329.073705 372.066877 
L 334.541795 372.796077 
L 340.009886 373.260114 
L 345.477977 373.458986 
L 350.946068 373.392695 
L 356.414159 373.061241 
L 361.88225 372.464623 
L 367.350341 371.602841 
L 372.818432 370.475895 
L 378.286523 369.083786 
L 383.754614 367.426514 
L 389.222705 365.504077 
L 394.690795 363.316477 
L 400.158886 360.863714 
L 405.626977 358.145786 
L 411.095068 355.162695 
L 416.563159 351.914441 
L 422.03125 348.401023 
L 427.499341 344.622441 
L 432.967432 340.578695 
L 438.435523 336.269786 
L 443.903614 331.695714 
L 449.371705 326.856477 
L 454.839795 321.752077 
L 460.307886 316.382514 
L 465.775977 310.747786 
L 471.244068 304.847895 
L 478.079182 297.100145 
L 484.914295 288.938077 
L 491.749409 280.361691 
L 498.584523 271.370986 
L 505.419636 261.965964 
L 512.25475 252.146623 
L 519.089864 241.912964 
L 525.924977 231.264986 
L 532.760091 220.202691 
L 539.595205 208.726077 
L 546.430318 196.835145 
L 553.265432 184.529895 
L 560.100545 171.810327 
L 566.935659 158.676441 
L 573.770773 145.128236 
L 581.972909 128.323491 
L 590.175045 110.922127 
L 598.377182 92.924145 
L 606.579318 74.329545 
L 614.781455 55.138327 
L 620.249545 42.012727 
L 620.249545 42.012727 
" clip-path="url(#p9a499480e8)" style="fill: none; stroke: #1f77b4; stroke-width: 1.5; stroke-linecap: square"/>
   </g>
   <g id="patch_3">
    <path d="M 46.1 390.04 
L 46.1 25.44 
" style="fill: none; stroke: #000000; stroke-width: 0.8; stroke-linejoin: miter; stroke-linecap: square"/>
   </g>
   <g id="patch_4">
    <path d="M 647.59 390.04 
L 647.59 25.44 
" style="fill: none; stroke: #000000; stroke-width: 0.8; stroke-linejoin: miter; stroke-linecap: square"/>
   </g>
   <g id="patch_5">
    <path d="M 46.1 390.04 
L 647.59 390.04 
" style="fill: none; stroke: #000000; stroke-width: 0.8; stroke-linejoin: miter; stroke-linecap: square"/>
   </g>
   <g id="patch_6">
    <path d="M 46.1 25.44 
L 647.59 25.44 
" style="fill: none; stroke: #000000; stroke-width: 0.8; stroke-linejoin: miter; stroke-linecap: square"/>
   </g>
   <g id="text_16">
    <!-- Energy levels -->
    <g transform="translate(306.53625 19.44)scale(0.12 -0.12)">
     <defs>
      <path id="DejaVuSans-45" d="M 628 4666 
L 3578 4666 
L 3578 4134 
L 1259 4134 
L 1259 2753 
L 3481 2753 
L 3481 2222 
L 1259 2222 
L 1259 531 
L 3634 531 
L 3634 0 
L 628 0 
L 628 4666 
z
" transform="scale(0.015625)"/>
      <path id="DejaVuSans-6e" d="M 3513 2113 
L 3513 0 
L 2938 0 
L 2938 2094 
Q 2938 2591 2744 2837 
Q 2550 3084 2163 3084 
Q 1697 3084 1428 2787 
Q 1159 2491 1159 1978 
L 1159 0 
L 581 0 
L 581 3500 
L 1159 3500 
L 1159 2956 
Q 1366 3272 1645 3428 
Q 1925 3584 2291 3584 
Q 2894 3584 3203 3211 
Q 3513 2838 3513 2113 
z
" transform="scale(0.015625)"/>
      <path id="DejaVuSans-65" d="M 3597 1894 
L 3597 1613 
L 953 1613 
Q 991 1019 1311 708 
Q 1631 397 2203 397 
Q 2534 397 2845 478 
Q 3156 559 3463 722 
L 3463 178 
Q 3153 47 2828 -22 
Q 2503 -91 2169 -91 
Q 1331 -91 842 396 
Q 353 884 353 1716 
Q 353 2575 817 3079 
Q 1281 3584 2069 3584 
Q 2775 3584 3186 3129 
Q 3597 2675 3597 1894 
z
M 3022 2063 
Q 3016 2534 2758 2815 
Q 2500 3097 2075 3097 
Q 1594 3097 1305 2825 
Q 1016 2553 972 2059 
L 3022 2063 
z
" transform="scale(0.015625)"/>
      <path id="DejaVuSans-72" d="M 2631 2963 
Q 2534 3019 2420 3045 
Q 2306 3072 2169 3072 
Q 1681 3072 1420 2755 
Q 1159 2438 1159 1844 
L 1159 0 
L 581 0 
L 581 3500 
L 1159 3500 
L 1159 2956 
Q 1341 3275 1631 3429 
Q 1922 3584 2338 3584 
Q 2397 3584 2469 3576 
Q 2541 3569 2628 3553 
L 2631 2963 
z
" transform="scale(0.015625)"/>
      <path id="DejaVuSans-67" d="M 2906 1791 
Q 2906 2416 2648 2759 
Q 2391 3103 1925 3103 
Q 1463 3103 1205 2759 
Q 947 2416 947 1791 
Q 947 1169 1205 825 
Q 1463 481 1925 481 
Q 2391 481 2648 825 
Q 2906 1169 2906 1791 
z
M 3481 434 
Q 3481 -459 3084 -895 
Q 2688 -1331 1869 -1331 
Q 1566 -1331 1297 -1286 
Q 1028 -1241 775 -1147 
L 775 -588 
Q 1028 -725 1275 -790 
Q 1522 -856 1778 -856 
Q 2344 -856 2625 -561 
Q 2906 -266 2906 331 
L 2906 616 
Q 2728 306 2450 153 
Q 2172 0 1784 0 
Q 1141 0 747 490 
Q 353 981 353 1791 
Q 353 2603 747 3093 
Q 1141 3584 1784 3584 
Q 2172 3584 2450 3431 
Q 2728 3278 2906 2969 
L 2906 3500 
L 3481 3500 
L 3481 434 
z
" transform="scale(0.015625)"/>
      <path id="DejaVuSans-79" d="M 2059 -325 
Q 1816 -950 1584 -1140 
Q 1353 -1331 966 -1331 
L 506 -1331 
L 506 -850 
L 844 -850 
Q 1081 -850 1212 -737 
Q 1344 -625 1503 -206 
L 1606 56 
L 191 3500 
L 800 3500 
L 1894 763 
L 2988 3500 
L 3597 3500 
L 2059 -325 
z
" transform="scale(0.015625)"/>
      <path id="DejaVuSans-20" transform="scale(0.015625)"/>
      <path id="DejaVuSans-6c" d="M 603 4863 
L 1178 4863 
L 1178 0 
L 603 0 
L 603 4863 
z
" transform="scale(0.015625)"/>
      <path id="DejaVuSans-76" d="M 191 3500 
L 800 3500 
L 1894 563 
L 2988 3500 
L 3597 3500 
L 2284 0 
L 1503 0 
L 191 3500 
z
" transform="scale(0.015625)"/>
      <path id="DejaVuSans-73" d="M 2834 3397 
L 2834 2853 
Q 2591 2978 2328 3040 
Q 2066 3103 1784 3103 
Q 1356 3103 1142 2972 
Q 928 2841 928 2578 
Q 928 2378 1081 2264 
Q 1234 2150 1697 2047 
L 1894 2003 
Q 2506 1872 2764 1633 
Q 3022 1394 3022 966 
Q 3022 478 2636 193 
Q 2250 -91 1575 -91 
Q 1294 -91 989 -36 
Q 684 19 347 128 
L 347 722 
Q 666 556 975 473 
Q 1284 391 1588 391 
Q 1994 391 2212 530 
Q 2431 669 2431 922 
Q 2431 1156 2273 1281 
Q 2116 1406 1581 1522 
L 1381 1569 
Q 847 1681 609 1914 
Q 372 2147 372 2553 
Q 372 3047 722 3315 
Q 1072 3584 1716 3584 
Q 2034 3584 2315 3537 
Q 2597 3491 2834 3397 
z
" transform="scale(0.015625)"/>
     </defs>
     <use xlink:href="#DejaVuSans-45"/>
     <use xlink:href="#DejaVuSans-6e" x="63.183594"/>
     <use xlink:href="#DejaVuSans-65" x="126.5625"/>
     <use xlink:href="#DejaVuSans-72" x="188.085938"/>
     <use xlink:href="#DejaVuSans-67" x="227.449219"/>
     <use xlink:href="#DejaVuSans-79" x="290.925781"/>
     <use xlink:href="#DejaVuSans-20" x="350.105469"/>
     <use xlink:href="#DejaVuSans-6c" x="381.892578"/>
     <use xlink:href="#DejaVuSans-65" x="409.675781"/>
     <use xlink:href="#DejaVuSans-76" x="471.199219"/>
     <use xlink:href="#DejaVuSans-65" x="530.378906"/>
     <use xlink:href="#DejaVuSans-6c" x="591.902344"/>
     <use xlink:href="#DejaVuSans-73" x="619.685547"/>
    </g>
   </g>
   <g id="legend_1">
    <g id="patch_7">
     <path d="M 654.59 289.969687 
L 707.1525 289.969687 
Q 709.1525 289.969687 709.1525 287.969687 
L 709.1525 127.510312 
Q 709.1525 125.510312 707.1525 125.510312 
L 654.59 125.510312 
Q 652.59 125.510312 652.59 127.510312 
L 652.59 287.969687 
Q 652.59 289.969687 654.59 289.969687 
z
" style="fill: #ffffff; opacity: 0.8; stroke: #cccccc; stroke-linejoin: miter"/>
    </g>
    <g id="line2d_25">
     <path d="M 656.59 133.60875 
L 666.59 133.60875 
L 676.59 133.60875 
" style="fill: none; stroke: #1f77b4; stroke-width: 1.5; stroke-linecap: square"/>
    </g>
    <g id="text_17">
     <!-- $\Psi_{0}$ -->
     <g transform="translate(684.59 137.10875)scale(0.1 -0.1)">
      <use xlink:href="#DejaVuSans-3a8" transform="translate(0 0.09375)"/>
      <use xlink:href="#DejaVuSans-30" transform="translate(79.667969 -16.3125)scale(0.7)"/>
     </g>
    </g>
    <g id="line2d_26">
     <path d="M 656.59 148.286875 
L 666.59 148.286875 
L 676.59 148.286875 
" style="fill: none; stroke: #ff7f0e; stroke-width: 1.5; stroke-linecap: square"/>
    </g>
    <g id="text_18">
     <!-- $\Psi_{1}$ -->
     <g transform="translate(684.59 151.786875)scale(0.1 -0.1)">
      <use xlink:href="#DejaVuSans-3a8" transform="translate(0 0.09375)"/>
      <use xlink:href="#DejaVuSans-31" transform="translate(79.667969 -16.3125)scale(0.7)"/>
     </g>
    </g>
    <g id="line2d_27">
     <path d="M 656.59 162.965 
L 666.59 162.965 
L 676.59 162.965 
" style="fill: none; stroke: #2ca02c; stroke-width: 1.5; stroke-linecap: square"/>
    </g>
    <g id="text_19">
     <!-- $\Psi_{2}$ -->
     <g transform="translate(684.59 166.465)scale(0.1 -0.1)">
      <use xlink:href="#DejaVuSans-3a8" transform="translate(0 0.09375)"/>
      <use xlink:href="#DejaVuSans-32" transform="translate(79.667969 -16.3125)scale(0.7)"/>
     </g>
    </g>
    <g id="line2d_28">
     <path d="M 656.59 177.643125 
L 666.59 177.643125 
L 676.59 177.643125 
" style="fill: none; stroke: #d62728; stroke-width: 1.5; stroke-linecap: square"/>
    </g>
    <g id="text_20">
     <!-- $\Psi_{3}$ -->
     <g transform="translate(684.59 181.143125)scale(0.1 -0.1)">
      <defs>
       <path id="DejaVuSans-33" d="M 2597 2516 
Q 3050 2419 3304 2112 
Q 3559 1806 3559 1356 
Q 3559 666 3084 287 
Q 2609 -91 1734 -91 
Q 1441 -91 1130 -33 
Q 819 25 488 141 
L 488 750 
Q 750 597 1062 519 
Q 1375 441 1716 441 
Q 2309 441 2620 675 
Q 2931 909 2931 1356 
Q 2931 1769 2642 2001 
Q 2353 2234 1838 2234 
L 1294 2234 
L 1294 2753 
L 1863 2753 
Q 2328 2753 2575 2939 
Q 2822 3125 2822 3475 
Q 2822 3834 2567 4026 
Q 2313 4219 1838 4219 
Q 1578 4219 1281 4162 
Q 984 4106 628 3988 
L 628 4550 
Q 988 4650 1302 4700 
Q 1616 4750 1894 4750 
Q 2613 4750 3031 4423 
Q 3450 4097 3450 3541 
Q 3450 3153 3228 2886 
Q 3006 2619 2597 2516 
z
" transform="scale(0.015625)"/>
      </defs>
      <use xlink:href="#DejaVuSans-3a8" transform="translate(0 0.09375)"/>
      <use xlink:href="#DejaVuSans-33" transform="translate(79.667969 -16.3125)scale(0.7)"/>
     </g>
    </g>
    <g id="line2d_29">
     <path d="M 656.59 192.32125 
L 666.59 192.32125 
L 676.59 192.32125 
" style="fill: none; stroke: #9467bd; stroke-width: 1.5; stroke-linecap: square"/>
    </g>
    <g id="text_21">
     <!-- $\Psi_{4}$ -->
     <g transform="translate(684.59 195.82125)scale(0.1 -0.1)">
      <use xlink:href="#DejaVuSans-3a8" transform="translate(0 0.09375)"/>
      <use xlink:href="#DejaVuSans-34" transform="translate(79.667969 -16.3125)scale(0.7)"/>
     </g>
    </g>
    <g id="line2d_30">
     <path d="M 656.59 206.999375 
L 666.59 206.999375 
L 676.59 206.999375 
" style="fill: none; stroke: #8c564b; stroke-width: 1.5; stroke-linecap: square"/>
    </g>
    <g id="text_22">
     <!-- $\Psi_{5}$ -->
     <g transform="translate(684.59 210.499375)scale(0.1 -0.1)">
      <defs>
       <path id="DejaVuSans-35" d="M 691 4666 
L 3169 4666 
L 3169 4134 
L 1269 4134 
L 1269 2991 
Q 1406 3038 1543 3061 
Q 1681 3084 1819 3084 
Q 2600 3084 3056 2656 
Q 3513 2228 3513 1497 
Q 3513 744 3044 326 
Q 2575 -91 1722 -91 
Q 1428 -91 1123 -41 
Q 819 9 494 109 
L 494 744 
Q 775 591 1075 516 
Q 1375 441 1709 441 
Q 2250 441 2565 725 
Q 2881 1009 2881 1497 
Q 2881 1984 2565 2268 
Q 2250 2553 1709 2553 
Q 1456 2553 1204 2497 
Q 953 2441 691 2322 
L 691 4666 
z
" transform="scale(0.015625)"/>
      </defs>
      <use xlink:href="#DejaVuSans-3a8" transform="translate(0 0.09375)"/>
      <use xlink:href="#DejaVuSans-35" transform="translate(79.667969 -16.3125)scale(0.7)"/>
     </g>
    </g>
    <g id="line2d_31">
     <path d="M 656.59 221.6775 
L 666.59 221.6775 
L 676.59 221.6775 
" style="fill: none; stroke: #e377c2; stroke-width: 1.5; stroke-linecap: square"/>
    </g>
    <g id="text_23">
     <!-- $\Psi_{6}$ -->
     <g transform="translate(684.59 225.1775)scale(0.1 -0.1)">
      <use xlink:href="#DejaVuSans-3a8" transform="translate(0 0.09375)"/>
      <use xlink:href="#DejaVuSans-36" transform="translate(79.667969 -16.3125)scale(0.7)"/>
     </g>
    </g>
    <g id="line2d_32">
     <path d="M 656.59 236.355625 
L 666.59 236.355625 
L 676.59 236.355625 
" style="fill: none; stroke: #7f7f7f; stroke-width: 1.5; stroke-linecap: square"/>
    </g>
    <g id="text_24">
     <!-- $\Psi_{7}$ -->
     <g transform="translate(684.59 239.855625)scale(0.1 -0.1)">
      <defs>
       <path id="DejaVuSans-37" d="M 525 4666 
L 3525 4666 
L 3525 4397 
L 1831 0 
L 1172 0 
L 2766 4134 
L 525 4134 
L 525 4666 
z
" transform="scale(0.015625)"/>
      </defs>
      <use xlink:href="#DejaVuSans-3a8" transform="translate(0 0.09375)"/>
      <use xlink:href="#DejaVuSans-37" transform="translate(79.667969 -16.3125)scale(0.7)"/>
     </g>
    </g>
    <g id="line2d_33">
     <path d="M 656.59 251.03375 
L 666.59 251.03375 
L 676.59 251.03375 
" style="fill: none; stroke: #bcbd22; stroke-width: 1.5; stroke-linecap: square"/>
    </g>
    <g id="text_25">
     <!-- $\Psi_{8}$ -->
     <g transform="translate(684.59 254.53375)scale(0.1 -0.1)">
      <use xlink:href="#DejaVuSans-3a8" transform="translate(0 0.09375)"/>
      <use xlink:href="#DejaVuSans-38" transform="translate(79.667969 -16.3125)scale(0.7)"/>
     </g>
    </g>
    <g id="line2d_34">
     <path d="M 656.59 265.711875 
L 666.59 265.711875 
L 676.59 265.711875 
" style="fill: none; stroke: #17becf; stroke-width: 1.5; stroke-linecap: square"/>
    </g>
    <g id="text_26">
     <!-- $\Psi_{9}$ -->
     <g transform="translate(684.59 269.211875)scale(0.1 -0.1)">
      <defs>
       <path id="DejaVuSans-39" d="M 703 97 
L 703 672 
Q 941 559 1184 500 
Q 1428 441 1663 441 
Q 2288 441 2617 861 
Q 2947 1281 2994 2138 
Q 2813 1869 2534 1725 
Q 2256 1581 1919 1581 
Q 1219 1581 811 2004 
Q 403 2428 403 3163 
Q 403 3881 828 4315 
Q 1253 4750 1959 4750 
Q 2769 4750 3195 4129 
Q 3622 3509 3622 2328 
Q 3622 1225 3098 567 
Q 2575 -91 1691 -91 
Q 1453 -91 1209 -44 
Q 966 3 703 97 
z
M 1959 2075 
Q 2384 2075 2632 2365 
Q 2881 2656 2881 3163 
Q 2881 3666 2632 3958 
Q 2384 4250 1959 4250 
Q 1534 4250 1286 3958 
Q 1038 3666 1038 3163 
Q 1038 2656 1286 2365 
Q 1534 2075 1959 2075 
z
" transform="scale(0.015625)"/>
      </defs>
      <use xlink:href="#DejaVuSans-3a8" transform="translate(0 0.09375)"/>
      <use xlink:href="#DejaVuSans-39" transform="translate(79.667969 -16.3125)scale(0.7)"/>
     </g>
    </g>
    <g id="line2d_35">
     <path d="M 656.59 280.39 
L 666.59 280.39 
L 676.59 280.39 
" style="fill: none; stroke: #1f77b4; stroke-width: 1.5; stroke-linecap: square"/>
    </g>
    <g id="text_27">
     <!-- V(x) -->
     <g transform="translate(684.59 283.89)scale(0.1 -0.1)">
      <defs>
       <path id="DejaVuSans-56" d="M 1831 0 
L 50 4666 
L 709 4666 
L 2188 738 
L 3669 4666 
L 4325 4666 
L 2547 0 
L 1831 0 
z
" transform="scale(0.015625)"/>
      </defs>
      <use xlink:href="#DejaVuSans-56"/>
      <use xlink:href="#DejaVuSans-28" x="68.408203"/>
      <use xlink:href="#DejaVuSans-78" x="107.421875"/>
      <use xlink:href="#DejaVuSans-29" x="166.601562"/>
     </g>
    </g>
   </g>
  </g>
 </g>
 <defs>
  <clipPath id="p9a499480e8">
   <rect x="46.1" y="25.44" width="601.49" height="364.6"/>
  </clipPath>
 </defs>
</svg>
